<svg xmlns="http://www.w3.org/2000/svg" width="800" height="800" viewBox="0 0 32 32" fill="none" xmlns:v="https://vecta.io/nano"><path fill-rule="evenodd" d="M8.109 4.79L16 4l7.891.79L30 12.558 16 28 2 12.558 8.109 4.79z" fill="#fdb300"/><path d="M7.671 12.558L16 28 2 12.558h5.671zm16.659 0L16 28l14-15.442" fill="#ea6c00"/><path fill-rule="evenodd" d="M7.671 12.558h16.659L16 28" fill="#fdad00"/><path d="M16 4l-7.891.79-.438 7.768L16 4zm0 0l7.891.79.438 7.768" fill="#fdd231"/><path d="M30 12.558L23.891 4.79l.438 7.768H30zm-28 0L8.109 4.79l-.438 7.768" fill="#fdad00"/><path fill-rule="evenodd" d="M16 4l-8.329 8.558h16.659" fill="#feeeb7"/></svg>